<mxfile host="Electron" modified="2023-11-13T08:44:59.941Z" agent="Mozilla/5.0 (Macintosh; Intel Mac OS X 10_15_7) AppleWebKit/537.36 (KHTML, like Gecko) draw.io/22.0.3 Chrome/114.0.5735.289 Electron/25.8.4 Safari/537.36" etag="q3S9RGdk_svaKxaGX5Ji" version="22.0.3" type="device" pages="3">
  <diagram id="C5RBs43oDa-KdzZeNtuy" name="Page-1">
    <mxGraphModel dx="1434" dy="854" grid="1" gridSize="10" guides="1" tooltips="1" connect="1" arrows="1" fold="1" page="1" pageScale="1" pageWidth="827" pageHeight="1169" math="0" shadow="0">
      <root>
        <mxCell id="WIyWlLk6GJQsqaUBKTNV-0" />
        <mxCell id="WIyWlLk6GJQsqaUBKTNV-1" parent="WIyWlLk6GJQsqaUBKTNV-0" />
        <mxCell id="Mw_cDEjDpBBBaktPgEhC-10" style="edgeStyle=orthogonalEdgeStyle;rounded=0;orthogonalLoop=1;jettySize=auto;html=1;exitX=1;exitY=0.5;exitDx=0;exitDy=0;entryX=0;entryY=0.5;entryDx=0;entryDy=0;" parent="WIyWlLk6GJQsqaUBKTNV-1" source="Mw_cDEjDpBBBaktPgEhC-0" target="Mw_cDEjDpBBBaktPgEhC-6" edge="1">
          <mxGeometry relative="1" as="geometry" />
        </mxCell>
        <mxCell id="Mw_cDEjDpBBBaktPgEhC-0" value="Test 1" style="rounded=0;whiteSpace=wrap;html=1;" parent="WIyWlLk6GJQsqaUBKTNV-1" vertex="1">
          <mxGeometry x="160" y="160" width="80" height="40" as="geometry" />
        </mxCell>
        <mxCell id="Mw_cDEjDpBBBaktPgEhC-1" value="Test 4" style="rounded=0;whiteSpace=wrap;html=1;" parent="WIyWlLk6GJQsqaUBKTNV-1" vertex="1">
          <mxGeometry x="640" y="160" width="80" height="40" as="geometry" />
        </mxCell>
        <mxCell id="Mw_cDEjDpBBBaktPgEhC-17" style="edgeStyle=orthogonalEdgeStyle;rounded=0;orthogonalLoop=1;jettySize=auto;html=1;exitX=1;exitY=0.5;exitDx=0;exitDy=0;entryX=0;entryY=0.5;entryDx=0;entryDy=0;" parent="WIyWlLk6GJQsqaUBKTNV-1" source="Mw_cDEjDpBBBaktPgEhC-2" target="Mw_cDEjDpBBBaktPgEhC-1" edge="1">
          <mxGeometry relative="1" as="geometry" />
        </mxCell>
        <mxCell id="Mw_cDEjDpBBBaktPgEhC-2" value="Test 3" style="rounded=0;whiteSpace=wrap;html=1;" parent="WIyWlLk6GJQsqaUBKTNV-1" vertex="1">
          <mxGeometry x="480" y="160" width="80" height="40" as="geometry" />
        </mxCell>
        <mxCell id="Mw_cDEjDpBBBaktPgEhC-13" style="edgeStyle=orthogonalEdgeStyle;rounded=0;orthogonalLoop=1;jettySize=auto;html=1;exitX=0.5;exitY=1;exitDx=0;exitDy=0;entryX=0.5;entryY=1;entryDx=0;entryDy=0;" parent="WIyWlLk6GJQsqaUBKTNV-1" source="Mw_cDEjDpBBBaktPgEhC-3" target="Mw_cDEjDpBBBaktPgEhC-8" edge="1">
          <mxGeometry relative="1" as="geometry" />
        </mxCell>
        <mxCell id="Mw_cDEjDpBBBaktPgEhC-3" value="Test 5" style="rounded=0;whiteSpace=wrap;html=1;" parent="WIyWlLk6GJQsqaUBKTNV-1" vertex="1">
          <mxGeometry x="240" y="240" width="80" height="40" as="geometry" />
        </mxCell>
        <mxCell id="Mw_cDEjDpBBBaktPgEhC-21" style="edgeStyle=orthogonalEdgeStyle;rounded=0;orthogonalLoop=1;jettySize=auto;html=1;exitX=1;exitY=0.5;exitDx=0;exitDy=0;entryX=0;entryY=0.5;entryDx=0;entryDy=0;" parent="WIyWlLk6GJQsqaUBKTNV-1" source="Mw_cDEjDpBBBaktPgEhC-4" target="Mw_cDEjDpBBBaktPgEhC-7" edge="1">
          <mxGeometry relative="1" as="geometry" />
        </mxCell>
        <mxCell id="Mw_cDEjDpBBBaktPgEhC-4" value="Test 9" style="rounded=0;whiteSpace=wrap;html=1;fillColor=#f8cecc;strokeColor=#b85450;" parent="WIyWlLk6GJQsqaUBKTNV-1" vertex="1">
          <mxGeometry x="320" y="360" width="80" height="40" as="geometry" />
        </mxCell>
        <mxCell id="Mw_cDEjDpBBBaktPgEhC-14" style="edgeStyle=orthogonalEdgeStyle;rounded=0;orthogonalLoop=1;jettySize=auto;html=1;exitX=1;exitY=0.5;exitDx=0;exitDy=0;entryX=0;entryY=0.5;entryDx=0;entryDy=0;" parent="WIyWlLk6GJQsqaUBKTNV-1" source="Mw_cDEjDpBBBaktPgEhC-5" target="Mw_cDEjDpBBBaktPgEhC-8" edge="1">
          <mxGeometry relative="1" as="geometry" />
        </mxCell>
        <mxCell id="Mw_cDEjDpBBBaktPgEhC-5" value="Test 6" style="rounded=0;whiteSpace=wrap;html=1;" parent="WIyWlLk6GJQsqaUBKTNV-1" vertex="1">
          <mxGeometry x="440" y="240" width="80" height="40" as="geometry" />
        </mxCell>
        <mxCell id="Mw_cDEjDpBBBaktPgEhC-11" style="edgeStyle=orthogonalEdgeStyle;rounded=0;orthogonalLoop=1;jettySize=auto;html=1;exitX=0.5;exitY=1;exitDx=0;exitDy=0;entryX=0.5;entryY=0;entryDx=0;entryDy=0;" parent="WIyWlLk6GJQsqaUBKTNV-1" source="Mw_cDEjDpBBBaktPgEhC-6" target="Mw_cDEjDpBBBaktPgEhC-3" edge="1">
          <mxGeometry relative="1" as="geometry" />
        </mxCell>
        <mxCell id="Mw_cDEjDpBBBaktPgEhC-12" style="edgeStyle=orthogonalEdgeStyle;rounded=0;orthogonalLoop=1;jettySize=auto;html=1;exitX=0.5;exitY=1;exitDx=0;exitDy=0;entryX=0.5;entryY=0;entryDx=0;entryDy=0;" parent="WIyWlLk6GJQsqaUBKTNV-1" source="Mw_cDEjDpBBBaktPgEhC-6" target="Mw_cDEjDpBBBaktPgEhC-5" edge="1">
          <mxGeometry relative="1" as="geometry" />
        </mxCell>
        <mxCell id="Mw_cDEjDpBBBaktPgEhC-16" style="edgeStyle=orthogonalEdgeStyle;rounded=0;orthogonalLoop=1;jettySize=auto;html=1;exitX=1;exitY=0.5;exitDx=0;exitDy=0;entryX=0;entryY=0.5;entryDx=0;entryDy=0;" parent="WIyWlLk6GJQsqaUBKTNV-1" source="Mw_cDEjDpBBBaktPgEhC-6" target="Mw_cDEjDpBBBaktPgEhC-2" edge="1">
          <mxGeometry relative="1" as="geometry" />
        </mxCell>
        <mxCell id="Mw_cDEjDpBBBaktPgEhC-19" style="edgeStyle=orthogonalEdgeStyle;rounded=0;orthogonalLoop=1;jettySize=auto;html=1;exitX=0.5;exitY=0;exitDx=0;exitDy=0;entryX=0.5;entryY=0;entryDx=0;entryDy=0;" parent="WIyWlLk6GJQsqaUBKTNV-1" source="Mw_cDEjDpBBBaktPgEhC-6" target="Mw_cDEjDpBBBaktPgEhC-1" edge="1">
          <mxGeometry relative="1" as="geometry" />
        </mxCell>
        <mxCell id="Mw_cDEjDpBBBaktPgEhC-6" value="Test 2" style="rounded=0;whiteSpace=wrap;html=1;" parent="WIyWlLk6GJQsqaUBKTNV-1" vertex="1">
          <mxGeometry x="320" y="160" width="80" height="40" as="geometry" />
        </mxCell>
        <mxCell id="Mw_cDEjDpBBBaktPgEhC-15" style="edgeStyle=orthogonalEdgeStyle;rounded=0;orthogonalLoop=1;jettySize=auto;html=1;exitX=1;exitY=0.5;exitDx=0;exitDy=0;entryX=0.5;entryY=1;entryDx=0;entryDy=0;" parent="WIyWlLk6GJQsqaUBKTNV-1" source="Mw_cDEjDpBBBaktPgEhC-7" target="Mw_cDEjDpBBBaktPgEhC-8" edge="1">
          <mxGeometry relative="1" as="geometry" />
        </mxCell>
        <mxCell id="Mw_cDEjDpBBBaktPgEhC-7" value="Test 10" style="rounded=0;whiteSpace=wrap;html=1;" parent="WIyWlLk6GJQsqaUBKTNV-1" vertex="1">
          <mxGeometry x="480" y="360" width="80" height="40" as="geometry" />
        </mxCell>
        <mxCell id="Mw_cDEjDpBBBaktPgEhC-18" style="edgeStyle=orthogonalEdgeStyle;rounded=0;orthogonalLoop=1;jettySize=auto;html=1;exitX=0.5;exitY=0;exitDx=0;exitDy=0;entryX=0.5;entryY=1;entryDx=0;entryDy=0;" parent="WIyWlLk6GJQsqaUBKTNV-1" source="Mw_cDEjDpBBBaktPgEhC-8" target="Mw_cDEjDpBBBaktPgEhC-1" edge="1">
          <mxGeometry relative="1" as="geometry" />
        </mxCell>
        <mxCell id="Mw_cDEjDpBBBaktPgEhC-8" value="Test 7" style="rounded=0;whiteSpace=wrap;html=1;" parent="WIyWlLk6GJQsqaUBKTNV-1" vertex="1">
          <mxGeometry x="600" y="240" width="80" height="40" as="geometry" />
        </mxCell>
        <mxCell id="Mw_cDEjDpBBBaktPgEhC-20" style="edgeStyle=orthogonalEdgeStyle;rounded=0;orthogonalLoop=1;jettySize=auto;html=1;exitX=1;exitY=0.5;exitDx=0;exitDy=0;entryX=0;entryY=0.5;entryDx=0;entryDy=0;" parent="WIyWlLk6GJQsqaUBKTNV-1" source="Mw_cDEjDpBBBaktPgEhC-9" target="Mw_cDEjDpBBBaktPgEhC-4" edge="1">
          <mxGeometry relative="1" as="geometry" />
        </mxCell>
        <mxCell id="Mw_cDEjDpBBBaktPgEhC-9" value="Test 8" style="rounded=0;whiteSpace=wrap;html=1;" parent="WIyWlLk6GJQsqaUBKTNV-1" vertex="1">
          <mxGeometry x="160" y="360" width="80" height="40" as="geometry" />
        </mxCell>
      </root>
    </mxGraphModel>
  </diagram>
  <diagram id="C5RBs43oDa-KdzZeNtuy" name="workflow 1">
    <mxGraphModel dx="1434" dy="854" grid="1" gridSize="10" guides="1" tooltips="1" connect="1" arrows="1" fold="1" page="1" pageScale="1" pageWidth="827" pageHeight="1169" math="0" shadow="0">
      <root>
        <mxCell id="WIyWlLk6GJQsqaUBKTNV-0" style="fillColor=#f5f5f5;fontColor=#CCCCCC;strokeColor=#CCCCCC;fillColor=#f5f5f5;fontColor=#CCCCCC;strokeColor=#CCCCCC;" />
        <mxCell id="WIyWlLk6GJQsqaUBKTNV-1" parent="WIyWlLk6GJQsqaUBKTNV-0" style="fillColor=#f5f5f5;fontColor=#CCCCCC;strokeColor=#CCCCCC;fillColor=#f5f5f5;fontColor=#CCCCCC;strokeColor=#CCCCCC;" />
        <mxCell id="Mw_cDEjDpBBBaktPgEhC-10" style="edgeStyle=orthogonalEdgeStyle;rounded=0;orthogonalLoop=1;jettySize=auto;html=1;exitX=1;exitY=0.5;exitDx=0;exitDy=0;entryX=0;entryY=0.5;entryDx=0;entryDy=0;" parent="WIyWlLk6GJQsqaUBKTNV-1" source="Mw_cDEjDpBBBaktPgEhC-0" target="Mw_cDEjDpBBBaktPgEhC-6" edge="1">
          <mxGeometry relative="1" as="geometry" />
        </mxCell>
        <mxCell id="Mw_cDEjDpBBBaktPgEhC-0" value="Test 1" style="rounded=0;whiteSpace=wrap;html=1;" parent="WIyWlLk6GJQsqaUBKTNV-1" vertex="1">
          <mxGeometry x="160" y="160" width="80" height="40" as="geometry" />
        </mxCell>
        <mxCell id="Mw_cDEjDpBBBaktPgEhC-1" value="Test 4" style="rounded=0;whiteSpace=wrap;html=1;" parent="WIyWlLk6GJQsqaUBKTNV-1" vertex="1">
          <mxGeometry x="640" y="160" width="80" height="40" as="geometry" />
        </mxCell>
        <mxCell id="Mw_cDEjDpBBBaktPgEhC-17" style="edgeStyle=orthogonalEdgeStyle;rounded=0;orthogonalLoop=1;jettySize=auto;html=1;exitX=1;exitY=0.5;exitDx=0;exitDy=0;entryX=0;entryY=0.5;entryDx=0;entryDy=0;" parent="WIyWlLk6GJQsqaUBKTNV-1" source="Mw_cDEjDpBBBaktPgEhC-2" target="Mw_cDEjDpBBBaktPgEhC-1" edge="1">
          <mxGeometry relative="1" as="geometry" />
        </mxCell>
        <mxCell id="Mw_cDEjDpBBBaktPgEhC-2" value="Test 3" style="rounded=0;whiteSpace=wrap;html=1;" parent="WIyWlLk6GJQsqaUBKTNV-1" vertex="1">
          <mxGeometry x="480" y="160" width="80" height="40" as="geometry" />
        </mxCell>
        <mxCell id="Mw_cDEjDpBBBaktPgEhC-13" style="edgeStyle=orthogonalEdgeStyle;rounded=0;orthogonalLoop=1;jettySize=auto;html=1;exitX=0.5;exitY=1;exitDx=0;exitDy=0;entryX=0.5;entryY=1;entryDx=0;entryDy=0;" parent="WIyWlLk6GJQsqaUBKTNV-1" source="Mw_cDEjDpBBBaktPgEhC-3" target="Mw_cDEjDpBBBaktPgEhC-8" edge="1">
          <mxGeometry relative="1" as="geometry" />
        </mxCell>
        <mxCell id="Mw_cDEjDpBBBaktPgEhC-3" value="Test 5" style="rounded=0;whiteSpace=wrap;html=1;" parent="WIyWlLk6GJQsqaUBKTNV-1" vertex="1">
          <mxGeometry x="240" y="240" width="80" height="40" as="geometry" />
        </mxCell>
        <mxCell id="Mw_cDEjDpBBBaktPgEhC-21" style="edgeStyle=orthogonalEdgeStyle;rounded=0;orthogonalLoop=1;jettySize=auto;html=1;exitX=1;exitY=0.5;exitDx=0;exitDy=0;entryX=0;entryY=0.5;entryDx=0;entryDy=0;fillColor=#f5f5f5;fontColor=#CCCCCC;strokeColor=#CCCCCC;" parent="WIyWlLk6GJQsqaUBKTNV-1" source="Mw_cDEjDpBBBaktPgEhC-4" target="Mw_cDEjDpBBBaktPgEhC-7" edge="1">
          <mxGeometry relative="1" as="geometry" />
        </mxCell>
        <mxCell id="Mw_cDEjDpBBBaktPgEhC-4" value="Test 9" style="rounded=0;whiteSpace=wrap;html=1;fillColor=#f8cecc;strokeColor=#b85450;fillColor=#f5f5f5;fontColor=#CCCCCC;strokeColor=#CCCCCC;fillColor=#f5f5f5;fontColor=#CCCCCC;strokeColor=#CCCCCC;" parent="WIyWlLk6GJQsqaUBKTNV-1" vertex="1">
          <mxGeometry x="320" y="360" width="80" height="40" as="geometry" />
        </mxCell>
        <mxCell id="Mw_cDEjDpBBBaktPgEhC-14" style="edgeStyle=orthogonalEdgeStyle;rounded=0;orthogonalLoop=1;jettySize=auto;html=1;exitX=1;exitY=0.5;exitDx=0;exitDy=0;entryX=0;entryY=0.5;entryDx=0;entryDy=0;" parent="WIyWlLk6GJQsqaUBKTNV-1" source="Mw_cDEjDpBBBaktPgEhC-5" target="Mw_cDEjDpBBBaktPgEhC-8" edge="1">
          <mxGeometry relative="1" as="geometry" />
        </mxCell>
        <mxCell id="Mw_cDEjDpBBBaktPgEhC-5" value="Test 6" style="rounded=0;whiteSpace=wrap;html=1;" parent="WIyWlLk6GJQsqaUBKTNV-1" vertex="1">
          <mxGeometry x="440" y="240" width="80" height="40" as="geometry" />
        </mxCell>
        <mxCell id="Mw_cDEjDpBBBaktPgEhC-11" style="edgeStyle=orthogonalEdgeStyle;rounded=0;orthogonalLoop=1;jettySize=auto;html=1;exitX=0.5;exitY=1;exitDx=0;exitDy=0;entryX=0.5;entryY=0;entryDx=0;entryDy=0;" parent="WIyWlLk6GJQsqaUBKTNV-1" source="Mw_cDEjDpBBBaktPgEhC-6" target="Mw_cDEjDpBBBaktPgEhC-3" edge="1">
          <mxGeometry relative="1" as="geometry" />
        </mxCell>
        <mxCell id="Mw_cDEjDpBBBaktPgEhC-12" style="edgeStyle=orthogonalEdgeStyle;rounded=0;orthogonalLoop=1;jettySize=auto;html=1;exitX=0.5;exitY=1;exitDx=0;exitDy=0;entryX=0.5;entryY=0;entryDx=0;entryDy=0;" parent="WIyWlLk6GJQsqaUBKTNV-1" source="Mw_cDEjDpBBBaktPgEhC-6" target="Mw_cDEjDpBBBaktPgEhC-5" edge="1">
          <mxGeometry relative="1" as="geometry" />
        </mxCell>
        <mxCell id="Mw_cDEjDpBBBaktPgEhC-16" style="edgeStyle=orthogonalEdgeStyle;rounded=0;orthogonalLoop=1;jettySize=auto;html=1;exitX=1;exitY=0.5;exitDx=0;exitDy=0;entryX=0;entryY=0.5;entryDx=0;entryDy=0;" parent="WIyWlLk6GJQsqaUBKTNV-1" source="Mw_cDEjDpBBBaktPgEhC-6" target="Mw_cDEjDpBBBaktPgEhC-2" edge="1">
          <mxGeometry relative="1" as="geometry" />
        </mxCell>
        <mxCell id="Mw_cDEjDpBBBaktPgEhC-19" style="edgeStyle=orthogonalEdgeStyle;rounded=0;orthogonalLoop=1;jettySize=auto;html=1;exitX=0.5;exitY=0;exitDx=0;exitDy=0;entryX=0.5;entryY=0;entryDx=0;entryDy=0;" parent="WIyWlLk6GJQsqaUBKTNV-1" source="Mw_cDEjDpBBBaktPgEhC-6" target="Mw_cDEjDpBBBaktPgEhC-1" edge="1">
          <mxGeometry relative="1" as="geometry" />
        </mxCell>
        <mxCell id="Mw_cDEjDpBBBaktPgEhC-6" value="Test 2" style="rounded=0;whiteSpace=wrap;html=1;" parent="WIyWlLk6GJQsqaUBKTNV-1" vertex="1">
          <mxGeometry x="320" y="160" width="80" height="40" as="geometry" />
        </mxCell>
        <mxCell id="Mw_cDEjDpBBBaktPgEhC-15" style="edgeStyle=orthogonalEdgeStyle;rounded=0;orthogonalLoop=1;jettySize=auto;html=1;exitX=1;exitY=0.5;exitDx=0;exitDy=0;entryX=0.5;entryY=1;entryDx=0;entryDy=0;fillColor=#f5f5f5;fontColor=#CCCCCC;strokeColor=#CCCCCC;" parent="WIyWlLk6GJQsqaUBKTNV-1" source="Mw_cDEjDpBBBaktPgEhC-7" target="Mw_cDEjDpBBBaktPgEhC-8" edge="1">
          <mxGeometry relative="1" as="geometry" />
        </mxCell>
        <mxCell id="Mw_cDEjDpBBBaktPgEhC-7" value="Test 10" style="rounded=0;whiteSpace=wrap;html=1;fillColor=#f5f5f5;fontColor=#CCCCCC;strokeColor=#CCCCCC;fillColor=#f5f5f5;fontColor=#CCCCCC;strokeColor=#CCCCCC;" parent="WIyWlLk6GJQsqaUBKTNV-1" vertex="1">
          <mxGeometry x="480" y="360" width="80" height="40" as="geometry" />
        </mxCell>
        <mxCell id="Mw_cDEjDpBBBaktPgEhC-18" style="edgeStyle=orthogonalEdgeStyle;rounded=0;orthogonalLoop=1;jettySize=auto;html=1;exitX=0.5;exitY=0;exitDx=0;exitDy=0;entryX=0.5;entryY=1;entryDx=0;entryDy=0;" parent="WIyWlLk6GJQsqaUBKTNV-1" source="Mw_cDEjDpBBBaktPgEhC-8" target="Mw_cDEjDpBBBaktPgEhC-1" edge="1">
          <mxGeometry relative="1" as="geometry" />
        </mxCell>
        <mxCell id="Mw_cDEjDpBBBaktPgEhC-8" value="Test 7" style="rounded=0;whiteSpace=wrap;html=1;" parent="WIyWlLk6GJQsqaUBKTNV-1" vertex="1">
          <mxGeometry x="600" y="240" width="80" height="40" as="geometry" />
        </mxCell>
        <mxCell id="Mw_cDEjDpBBBaktPgEhC-20" style="edgeStyle=orthogonalEdgeStyle;rounded=0;orthogonalLoop=1;jettySize=auto;html=1;exitX=1;exitY=0.5;exitDx=0;exitDy=0;entryX=0;entryY=0.5;entryDx=0;entryDy=0;fillColor=#f5f5f5;fontColor=#CCCCCC;strokeColor=#CCCCCC;" parent="WIyWlLk6GJQsqaUBKTNV-1" source="Mw_cDEjDpBBBaktPgEhC-9" target="Mw_cDEjDpBBBaktPgEhC-4" edge="1">
          <mxGeometry relative="1" as="geometry" />
        </mxCell>
        <mxCell id="Mw_cDEjDpBBBaktPgEhC-9" value="Test 8" style="rounded=0;whiteSpace=wrap;html=1;fillColor=#f5f5f5;fontColor=#CCCCCC;strokeColor=#CCCCCC;fillColor=#f5f5f5;fontColor=#CCCCCC;strokeColor=#CCCCCC;" parent="WIyWlLk6GJQsqaUBKTNV-1" vertex="1">
          <mxGeometry x="160" y="360" width="80" height="40" as="geometry" />
        </mxCell>
      </root>
    </mxGraphModel>
  </diagram>
  <diagram id="C5RBs43oDa-KdzZeNtuy" name="workflow 2">
    <mxGraphModel dx="1434" dy="854" grid="1" gridSize="10" guides="1" tooltips="1" connect="1" arrows="1" fold="1" page="1" pageScale="1" pageWidth="827" pageHeight="1169" math="0" shadow="0">
      <root>
        <mxCell id="WIyWlLk6GJQsqaUBKTNV-0" style="fillColor=#f5f5f5;fontColor=#CCCCCC;strokeColor=#CCCCCC;fillColor=#f5f5f5;fontColor=#CCCCCC;strokeColor=#CCCCCC;" />
        <mxCell id="WIyWlLk6GJQsqaUBKTNV-1" parent="WIyWlLk6GJQsqaUBKTNV-0" style="fillColor=#f5f5f5;fontColor=#CCCCCC;strokeColor=#CCCCCC;fillColor=#f5f5f5;fontColor=#CCCCCC;strokeColor=#CCCCCC;" />
        <mxCell id="Mw_cDEjDpBBBaktPgEhC-10" style="edgeStyle=orthogonalEdgeStyle;rounded=0;orthogonalLoop=1;jettySize=auto;html=1;exitX=1;exitY=0.5;exitDx=0;exitDy=0;entryX=0;entryY=0.5;entryDx=0;entryDy=0;fillColor=#f5f5f5;fontColor=#CCCCCC;strokeColor=#CCCCCC;" parent="WIyWlLk6GJQsqaUBKTNV-1" source="Mw_cDEjDpBBBaktPgEhC-0" target="Mw_cDEjDpBBBaktPgEhC-6" edge="1">
          <mxGeometry relative="1" as="geometry" />
        </mxCell>
        <mxCell id="Mw_cDEjDpBBBaktPgEhC-0" value="Test 1" style="rounded=0;whiteSpace=wrap;html=1;fillColor=#f5f5f5;fontColor=#CCCCCC;strokeColor=#CCCCCC;fillColor=#f5f5f5;fontColor=#CCCCCC;strokeColor=#CCCCCC;" parent="WIyWlLk6GJQsqaUBKTNV-1" vertex="1">
          <mxGeometry x="160" y="160" width="80" height="40" as="geometry" />
        </mxCell>
        <mxCell id="Mw_cDEjDpBBBaktPgEhC-1" value="Test 4" style="rounded=0;whiteSpace=wrap;html=1;" parent="WIyWlLk6GJQsqaUBKTNV-1" vertex="1">
          <mxGeometry x="640" y="160" width="80" height="40" as="geometry" />
        </mxCell>
        <mxCell id="Mw_cDEjDpBBBaktPgEhC-17" style="edgeStyle=orthogonalEdgeStyle;rounded=0;orthogonalLoop=1;jettySize=auto;html=1;exitX=1;exitY=0.5;exitDx=0;exitDy=0;entryX=0;entryY=0.5;entryDx=0;entryDy=0;fillColor=#f5f5f5;fontColor=#CCCCCC;strokeColor=#CCCCCC;" parent="WIyWlLk6GJQsqaUBKTNV-1" source="Mw_cDEjDpBBBaktPgEhC-2" target="Mw_cDEjDpBBBaktPgEhC-1" edge="1">
          <mxGeometry relative="1" as="geometry" />
        </mxCell>
        <mxCell id="Mw_cDEjDpBBBaktPgEhC-2" value="Test 3" style="rounded=0;whiteSpace=wrap;html=1;fillColor=#f5f5f5;fontColor=#CCCCCC;strokeColor=#CCCCCC;fillColor=#f5f5f5;fontColor=#CCCCCC;strokeColor=#CCCCCC;" parent="WIyWlLk6GJQsqaUBKTNV-1" vertex="1">
          <mxGeometry x="480" y="160" width="80" height="40" as="geometry" />
        </mxCell>
        <mxCell id="Mw_cDEjDpBBBaktPgEhC-13" style="edgeStyle=orthogonalEdgeStyle;rounded=0;orthogonalLoop=1;jettySize=auto;html=1;exitX=0.5;exitY=1;exitDx=0;exitDy=0;entryX=0.5;entryY=1;entryDx=0;entryDy=0;fillColor=#f5f5f5;fontColor=#CCCCCC;strokeColor=#CCCCCC;" parent="WIyWlLk6GJQsqaUBKTNV-1" source="Mw_cDEjDpBBBaktPgEhC-3" target="Mw_cDEjDpBBBaktPgEhC-8" edge="1">
          <mxGeometry relative="1" as="geometry" />
        </mxCell>
        <mxCell id="Mw_cDEjDpBBBaktPgEhC-3" value="Test 5" style="rounded=0;whiteSpace=wrap;html=1;fillColor=#f5f5f5;fontColor=#CCCCCC;strokeColor=#CCCCCC;fillColor=#f5f5f5;fontColor=#CCCCCC;strokeColor=#CCCCCC;" parent="WIyWlLk6GJQsqaUBKTNV-1" vertex="1">
          <mxGeometry x="240" y="240" width="80" height="40" as="geometry" />
        </mxCell>
        <mxCell id="Mw_cDEjDpBBBaktPgEhC-21" style="edgeStyle=orthogonalEdgeStyle;rounded=0;orthogonalLoop=1;jettySize=auto;html=1;exitX=1;exitY=0.5;exitDx=0;exitDy=0;entryX=0;entryY=0.5;entryDx=0;entryDy=0;" parent="WIyWlLk6GJQsqaUBKTNV-1" source="Mw_cDEjDpBBBaktPgEhC-4" target="Mw_cDEjDpBBBaktPgEhC-7" edge="1">
          <mxGeometry relative="1" as="geometry" />
        </mxCell>
        <mxCell id="Mw_cDEjDpBBBaktPgEhC-4" value="Test 9" style="rounded=0;whiteSpace=wrap;html=1;fillColor=#f8cecc;strokeColor=#b85450;" parent="WIyWlLk6GJQsqaUBKTNV-1" vertex="1">
          <mxGeometry x="320" y="360" width="80" height="40" as="geometry" />
        </mxCell>
        <mxCell id="Mw_cDEjDpBBBaktPgEhC-14" style="edgeStyle=orthogonalEdgeStyle;rounded=0;orthogonalLoop=1;jettySize=auto;html=1;exitX=1;exitY=0.5;exitDx=0;exitDy=0;entryX=0;entryY=0.5;entryDx=0;entryDy=0;fillColor=#f5f5f5;fontColor=#CCCCCC;strokeColor=#CCCCCC;" parent="WIyWlLk6GJQsqaUBKTNV-1" source="Mw_cDEjDpBBBaktPgEhC-5" target="Mw_cDEjDpBBBaktPgEhC-8" edge="1">
          <mxGeometry relative="1" as="geometry" />
        </mxCell>
        <mxCell id="Mw_cDEjDpBBBaktPgEhC-5" value="Test 6" style="rounded=0;whiteSpace=wrap;html=1;fillColor=#f5f5f5;fontColor=#CCCCCC;strokeColor=#CCCCCC;fillColor=#f5f5f5;fontColor=#CCCCCC;strokeColor=#CCCCCC;" parent="WIyWlLk6GJQsqaUBKTNV-1" vertex="1">
          <mxGeometry x="440" y="240" width="80" height="40" as="geometry" />
        </mxCell>
        <mxCell id="Mw_cDEjDpBBBaktPgEhC-11" style="edgeStyle=orthogonalEdgeStyle;rounded=0;orthogonalLoop=1;jettySize=auto;html=1;exitX=0.5;exitY=1;exitDx=0;exitDy=0;entryX=0.5;entryY=0;entryDx=0;entryDy=0;fillColor=#f5f5f5;fontColor=#CCCCCC;strokeColor=#CCCCCC;" parent="WIyWlLk6GJQsqaUBKTNV-1" source="Mw_cDEjDpBBBaktPgEhC-6" target="Mw_cDEjDpBBBaktPgEhC-3" edge="1">
          <mxGeometry relative="1" as="geometry" />
        </mxCell>
        <mxCell id="Mw_cDEjDpBBBaktPgEhC-12" style="edgeStyle=orthogonalEdgeStyle;rounded=0;orthogonalLoop=1;jettySize=auto;html=1;exitX=0.5;exitY=1;exitDx=0;exitDy=0;entryX=0.5;entryY=0;entryDx=0;entryDy=0;fillColor=#f5f5f5;fontColor=#CCCCCC;strokeColor=#CCCCCC;" parent="WIyWlLk6GJQsqaUBKTNV-1" source="Mw_cDEjDpBBBaktPgEhC-6" target="Mw_cDEjDpBBBaktPgEhC-5" edge="1">
          <mxGeometry relative="1" as="geometry" />
        </mxCell>
        <mxCell id="Mw_cDEjDpBBBaktPgEhC-16" style="edgeStyle=orthogonalEdgeStyle;rounded=0;orthogonalLoop=1;jettySize=auto;html=1;exitX=1;exitY=0.5;exitDx=0;exitDy=0;entryX=0;entryY=0.5;entryDx=0;entryDy=0;fillColor=#f5f5f5;fontColor=#CCCCCC;strokeColor=#CCCCCC;" parent="WIyWlLk6GJQsqaUBKTNV-1" source="Mw_cDEjDpBBBaktPgEhC-6" target="Mw_cDEjDpBBBaktPgEhC-2" edge="1">
          <mxGeometry relative="1" as="geometry" />
        </mxCell>
        <mxCell id="Mw_cDEjDpBBBaktPgEhC-19" style="edgeStyle=orthogonalEdgeStyle;rounded=0;orthogonalLoop=1;jettySize=auto;html=1;exitX=0.5;exitY=0;exitDx=0;exitDy=0;entryX=0.5;entryY=0;entryDx=0;entryDy=0;fillColor=#f5f5f5;fontColor=#CCCCCC;strokeColor=#CCCCCC;" parent="WIyWlLk6GJQsqaUBKTNV-1" source="Mw_cDEjDpBBBaktPgEhC-6" target="Mw_cDEjDpBBBaktPgEhC-1" edge="1">
          <mxGeometry relative="1" as="geometry" />
        </mxCell>
        <mxCell id="Mw_cDEjDpBBBaktPgEhC-6" value="Test 2" style="rounded=0;whiteSpace=wrap;html=1;fillColor=#f5f5f5;fontColor=#CCCCCC;strokeColor=#CCCCCC;fillColor=#f5f5f5;fontColor=#CCCCCC;strokeColor=#CCCCCC;" parent="WIyWlLk6GJQsqaUBKTNV-1" vertex="1">
          <mxGeometry x="320" y="160" width="80" height="40" as="geometry" />
        </mxCell>
        <mxCell id="Mw_cDEjDpBBBaktPgEhC-15" style="edgeStyle=orthogonalEdgeStyle;rounded=0;orthogonalLoop=1;jettySize=auto;html=1;exitX=1;exitY=0.5;exitDx=0;exitDy=0;entryX=0.5;entryY=1;entryDx=0;entryDy=0;" parent="WIyWlLk6GJQsqaUBKTNV-1" source="Mw_cDEjDpBBBaktPgEhC-7" target="Mw_cDEjDpBBBaktPgEhC-8" edge="1">
          <mxGeometry relative="1" as="geometry" />
        </mxCell>
        <mxCell id="Mw_cDEjDpBBBaktPgEhC-7" value="Test 10" style="rounded=0;whiteSpace=wrap;html=1;" parent="WIyWlLk6GJQsqaUBKTNV-1" vertex="1">
          <mxGeometry x="480" y="360" width="80" height="40" as="geometry" />
        </mxCell>
        <mxCell id="Mw_cDEjDpBBBaktPgEhC-18" style="edgeStyle=orthogonalEdgeStyle;rounded=0;orthogonalLoop=1;jettySize=auto;html=1;exitX=0.5;exitY=0;exitDx=0;exitDy=0;entryX=0.5;entryY=1;entryDx=0;entryDy=0;" parent="WIyWlLk6GJQsqaUBKTNV-1" source="Mw_cDEjDpBBBaktPgEhC-8" target="Mw_cDEjDpBBBaktPgEhC-1" edge="1">
          <mxGeometry relative="1" as="geometry" />
        </mxCell>
        <mxCell id="Mw_cDEjDpBBBaktPgEhC-8" value="Test 7" style="rounded=0;whiteSpace=wrap;html=1;" parent="WIyWlLk6GJQsqaUBKTNV-1" vertex="1">
          <mxGeometry x="600" y="240" width="80" height="40" as="geometry" />
        </mxCell>
        <mxCell id="Mw_cDEjDpBBBaktPgEhC-20" style="edgeStyle=orthogonalEdgeStyle;rounded=0;orthogonalLoop=1;jettySize=auto;html=1;exitX=1;exitY=0.5;exitDx=0;exitDy=0;entryX=0;entryY=0.5;entryDx=0;entryDy=0;" parent="WIyWlLk6GJQsqaUBKTNV-1" source="Mw_cDEjDpBBBaktPgEhC-9" target="Mw_cDEjDpBBBaktPgEhC-4" edge="1">
          <mxGeometry relative="1" as="geometry" />
        </mxCell>
        <mxCell id="Mw_cDEjDpBBBaktPgEhC-9" value="Test 8" style="rounded=0;whiteSpace=wrap;html=1;" parent="WIyWlLk6GJQsqaUBKTNV-1" vertex="1">
          <mxGeometry x="160" y="360" width="80" height="40" as="geometry" />
        </mxCell>
      </root>
    </mxGraphModel>
  </diagram>
  </mxfile>